HIERARCHY
ROOT pelvis
{
	OFFSET 0.003123 -0.351407 0.012037
	CHANNELS 6 Xposition Yposition Zposition Zrotation Yrotation Xrotation 
	JOINT left_hip
	{
		OFFSET 0.058189 -0.092763 -0.026001
		CHANNELS 3 Zrotation Yrotation Xrotation
		JOINT left_knee
		{
			OFFSET 0.054695 -0.378753 -0.009396
			CHANNELS 3 Zrotation Yrotation Xrotation
			JOINT left_ankle
			{
				OFFSET -0.043453 -0.403059 -0.031876
				CHANNELS 3 Zrotation Yrotation Xrotation
				JOINT left_foot
				{
					OFFSET 0.047257 -0.057997 0.118216
					CHANNELS 3 Zrotation Yrotation Xrotation
					End Site
					{
						OFFSET 0.000000 0.000000 0.000000
					}
				}
			}
		}
	}
	JOINT right_hip
	{
		OFFSET -0.063267 -0.103908 -0.021250
		CHANNELS 3 Zrotation Yrotation Xrotation
		JOINT right_knee
		{
			OFFSET -0.044210 -0.362380 -0.016824
			CHANNELS 3 Zrotation Yrotation Xrotation
			JOINT right_ankle
			{
				OFFSET 0.015417 -0.410728 -0.020192
				CHANNELS 3 Zrotation Yrotation Xrotation
				JOINT right_foot
				{
					OFFSET -0.038812 -0.058328 0.119049
					CHANNELS 3 Zrotation Yrotation Xrotation
					End Site
					{
						OFFSET 0.000000 0.000000 0.000000
					}
				}
			}
		}
	}
	JOINT spine_1
	{
		OFFSET -0.002763 0.109891 -0.027618
		CHANNELS 3 Zrotation Yrotation Xrotation
		JOINT spine_2
		{
			OFFSET 0.009448 0.131853 -0.005940
			CHANNELS 3 Zrotation Yrotation Xrotation
			JOINT spine_3
			{
				OFFSET -0.011330 0.052235 0.028447
				CHANNELS 3 Zrotation Yrotation Xrotation
				JOINT neck
				{
					OFFSET -0.012164 0.165167 -0.031615
					CHANNELS 3 Zrotation Yrotation Xrotation
					JOINT head
					{
						OFFSET 0.024783 0.160452 0.020737
						CHANNELS 3 Zrotation Yrotation Xrotation
						End Site
						{
							OFFSET 0.000000 0.000000 0.000000
						}
					}
				}
				JOINT left_collar
				{
					OFFSET 0.046364 0.084944 -0.007220
					CHANNELS 3 Zrotation Yrotation Xrotation
					JOINT left_shoulder
					{
						OFFSET 0.119239 0.057728 -0.015461
						CHANNELS 3 Zrotation Yrotation Xrotation
						JOINT left_elbow
						{
							OFFSET 0.254123 -0.072151 -0.042459
							CHANNELS 3 Zrotation Yrotation Xrotation
							JOINT left_wrist
							{
								OFFSET 0.251987 0.023221 -0.002472
								CHANNELS 3 Zrotation Yrotation Xrotation
								JOINT left_index_1
								{
									OFFSET 0.101902 -0.008688 0.019351
									CHANNELS 3 Zrotation Yrotation Xrotation
									JOINT left_index_2
									{
										OFFSET 0.030149 -0.011154 0.001151
										CHANNELS 3 Zrotation Yrotation Xrotation
										JOINT left_index_3
										{
											OFFSET 0.006504 -0.021577 -0.002433
											CHANNELS 3 Zrotation Yrotation Xrotation
											End Site
											{
												OFFSET 0.000000 0.000000 0.000000
											}
										}
									}
								}
								JOINT left_middle_1
								{
									OFFSET 0.109398 -0.006328 -0.003981
									CHANNELS 3 Zrotation Yrotation Xrotation
									JOINT left_middle_2
									{
										OFFSET 0.026472 -0.015218 -0.004641
										CHANNELS 3 Zrotation Yrotation Xrotation
										JOINT left_middle_3
										{
											OFFSET 0.005022 -0.023347 -0.001911
											CHANNELS 3 Zrotation Yrotation Xrotation
											End Site
											{
												OFFSET 0.000000 0.000000 0.000000
											}
										}
									}
								}
								JOINT left_pinky_1
								{
									OFFSET 0.084047 -0.014539 -0.043750
									CHANNELS 3 Zrotation Yrotation Xrotation
									JOINT left_pinky_2
									{
										OFFSET 0.012124 -0.014448 -0.005375
										CHANNELS 3 Zrotation Yrotation Xrotation
										JOINT left_pinky_3
										{
											OFFSET 0.003798 -0.018853 0.000167
											CHANNELS 3 Zrotation Yrotation Xrotation
											End Site
											{
												OFFSET 0.000000 0.000000 0.000000
											}
										}
									}
								}
								JOINT left_ring_1
								{
									OFFSET 0.097444 -0.009268 -0.027345
									CHANNELS 3 Zrotation Yrotation Xrotation
									JOINT left_ring_2
									{
										OFFSET 0.023561 -0.016057 -0.001895
										CHANNELS 3 Zrotation Yrotation Xrotation
										JOINT left_ring_3
										{
											OFFSET 0.004257 -0.023548 0.000814
											CHANNELS 3 Zrotation Yrotation Xrotation
											End Site
											{
												OFFSET 0.000000 0.000000 0.000000
											}
										}
									}
								}
								JOINT left_thumb_1
								{
									OFFSET 0.040636 -0.017977 0.025611
									CHANNELS 3 Zrotation Yrotation Xrotation
									JOINT left_thumb_2
									{
										OFFSET 0.021637 -0.017639 0.011623
										CHANNELS 3 Zrotation Yrotation Xrotation
										JOINT left_thumb_3
										{
											OFFSET 0.024002 -0.008356 0.006548
											CHANNELS 3 Zrotation Yrotation Xrotation
											End Site
											{
												OFFSET 0.000000 0.000000 0.000000
											}
										}
									}
								}
							}
						}
					}
				}
				JOINT right_collar
				{
					OFFSET -0.047695 0.084339 -0.013400
					CHANNELS 3 Zrotation Yrotation Xrotation
					JOINT right_shoulder
					{
						OFFSET -0.102578 0.053524 -0.012669
						CHANNELS 3 Zrotation Yrotation Xrotation
						JOINT right_elbow
						{
							OFFSET -0.271150 -0.036492 -0.026467
							CHANNELS 3 Zrotation Yrotation Xrotation
							JOINT right_wrist
							{
								OFFSET -0.249267 -0.004533 -0.015325
								CHANNELS 3 Zrotation Yrotation Xrotation
								JOINT right_index_1
								{
									OFFSET -0.099881 -0.011783 0.019600
									CHANNELS 3 Zrotation Yrotation Xrotation
									JOINT right_index_2
									{
										OFFSET -0.030148 -0.011154 0.001151
										CHANNELS 3 Zrotation Yrotation Xrotation
										JOINT right_index_3
										{
											OFFSET -0.006505 -0.021577 -0.002432
											CHANNELS 3 Zrotation Yrotation Xrotation
											End Site
											{
												OFFSET 0.000000 0.000000 0.000000
											}
										}
									}
								}
								JOINT right_middle_1
								{
									OFFSET -0.107376 -0.009422 -0.003734
									CHANNELS 3 Zrotation Yrotation Xrotation
									JOINT right_middle_2
									{
										OFFSET -0.026472 -0.015218 -0.004641
										CHANNELS 3 Zrotation Yrotation Xrotation
										JOINT right_middle_3
										{
											OFFSET -0.005022 -0.023347 -0.001911
											CHANNELS 3 Zrotation Yrotation Xrotation
											End Site
											{
												OFFSET 0.000000 0.000000 0.000000
											}
										}
									}
								}
								JOINT right_pinky_1
								{
									OFFSET -0.082027 -0.017634 -0.043503
									CHANNELS 3 Zrotation Yrotation Xrotation
									JOINT right_pinky_2
									{
										OFFSET -0.012123 -0.014448 -0.005374
										CHANNELS 3 Zrotation Yrotation Xrotation
										JOINT right_pinky_3
										{
											OFFSET -0.003798 -0.018852 0.000167
											CHANNELS 3 Zrotation Yrotation Xrotation
											End Site
											{
												OFFSET 0.000000 0.000000 0.000000
											}
										}
									}
								}
								JOINT right_ring_1
								{
									OFFSET -0.095423 -0.012362 -0.027099
									CHANNELS 3 Zrotation Yrotation Xrotation
									JOINT right_ring_2
									{
										OFFSET -0.023561 -0.016057 -0.001895
										CHANNELS 3 Zrotation Yrotation Xrotation
										JOINT right_ring_3
										{
											OFFSET -0.004257 -0.023548 0.000816
											CHANNELS 3 Zrotation Yrotation Xrotation
											End Site
											{
												OFFSET 0.000000 0.000000 0.000000
											}
										}
									}
								}
								JOINT right_thumb_1
								{
									OFFSET -0.038613 -0.021074 0.025861
									CHANNELS 3 Zrotation Yrotation Xrotation
									JOINT right_thumb_2
									{
										OFFSET -0.021636 -0.017639 0.011623
										CHANNELS 3 Zrotation Yrotation Xrotation
										JOINT right_thumb_3
										{
											OFFSET -0.024004 -0.008353 0.006547
											CHANNELS 3 Zrotation Yrotation Xrotation
											End Site
											{
												OFFSET 0.000000 0.000000 0.000000
											}
										}
									}
								}
							}
						}
					}
				}
			}
		}
	}
}
MOTION
Frames: 6
Frame Time: 0.050000
0.237469 0.701279 0.812317 -40.115618 -24.460991 13.555002 10.592154 2.446261 -21.722142 60.315244 -28.718318 53.287510 25.913582 -20.359485 -79.371592 0.000000 0.000000 0.000000 17.144456 6.888292 -22.910955 25.047678 -0.890227 45.961914 -26.873676 36.446519 -65.602364 0.000000 0.000000 0.000000 -3.618894 -0.867600 17.625335 -3.923258 -3.701496 -18.144180 13.103575 -9.249071 27.127841 10.151994 -2.507029 6.387720 0.000000 0.000000 0.000000 23.124819 -31.908790 8.604321 -77.691112 -41.344141 21.961736 141.415916 -75.113654 -106.312207 -161.083612 -36.863462 47.302967 150.416233 -34.943604 125.300225 54.102069 -0.872692 -2.275996 0.000000 0.000000 0.000000 -164.461389 -36.507492 16.696492 50.203808 -4.341840 3.585836 0.000000 0.000000 0.000000 -133.745898 -21.350534 -20.886525 28.660278 -0.839803 12.292010 0.000000 0.000000 0.000000 -159.737511 -39.616062 27.317106 51.033783 1.929063 1.785743 0.000000 0.000000 0.000000 12.850557 -15.944424 -69.903780 -16.897285 -62.997327 8.945743 0.000000 0.000000 0.000000 -56.390308 0.817532 10.209700 165.325025 44.562946 63.769501 118.040170 66.879736 124.672369 163.491143 -8.904854 -13.038748 10.608864 -49.427100 56.338541 -116.593282 1.208739 19.068432 0.000000 0.000000 0.000000 -29.269342 -2.828413 11.422379 142.760426 -32.421766 -36.535632 0.000000 0.000000 0.000000 -45.876012 -12.392198 -87.224160 -31.219952 -0.537154 23.050555 0.000000 0.000000 0.000000 -33.655525 1.086056 -78.487525 -54.115950 -3.836708 24.548169 0.000000 0.000000 0.000000 -24.816121 -1.301895 57.162787 18.158476 3.011697 4.728936 0.000000 0.000000 0.000000 
0.238411 0.721909 0.812317 -35.144725 -14.486127 5.098990 13.757323 1.278547 -16.626377 59.105586 -28.272528 42.169774 34.456716 -25.830180 -91.471240 0.000000 0.000000 0.000000 28.563882 7.077890 -18.734036 14.163565 -0.681766 47.841426 -20.412160 7.588618 -59.885889 0.000000 0.000000 0.000000 -6.812136 -0.551563 20.958228 -1.269270 -3.901387 -17.509582 16.657776 0.300177 22.455400 14.728984 -4.355777 8.345399 0.000000 0.000000 0.000000 19.545489 -41.914575 14.712600 -75.626633 -43.332365 12.127333 -145.803716 -69.414200 155.085352 -91.177730 -40.597198 14.864151 163.974868 -31.119039 71.747730 44.017833 -3.181292 -2.535667 0.000000 0.000000 0.000000 -163.294845 -14.938228 -8.194846 45.838626 -5.598221 7.713670 0.000000 0.000000 0.000000 -137.930867 -4.520921 -27.853177 28.277770 -0.569724 14.552864 0.000000 0.000000 0.000000 -157.863938 -26.491652 12.794544 48.252147 0.675490 5.107755 0.000000 0.000000 0.000000 53.913596 -20.036816 -92.366209 15.254518 7.992408 5.024311 0.000000 0.000000 0.000000 -48.649109 12.473900 7.331983 127.560550 56.822426 54.923303 176.930067 84.547918 -177.377373 162.616693 -9.164309 -8.207697 -0.819799 -67.624757 84.107252 -150.824795 16.144887 48.922430 0.000000 0.000000 0.000000 -141.157017 18.126531 2.911016 -65.080045 76.139175 -157.676100 0.000000 0.000000 0.000000 -18.896345 -1.466031 -137.441570 -42.111667 3.046840 21.385318 0.000000 0.000000 0.000000 -15.391055 38.227303 -157.188433 -89.212199 -1.976420 -16.460934 0.000000 0.000000 0.000000 -28.099257 0.547603 53.323618 19.323735 -0.088328 5.866090 0.000000 0.000000 0.000000 
0.247833 0.724487 0.799118 -25.846171 -13.913617 0.748233 5.213007 -0.374100 -7.877006 43.725760 -20.217596 36.485849 26.271641 -14.292141 -80.685131 0.000000 0.000000 0.000000 26.297540 4.422703 -14.163556 4.611898 2.219847 41.957657 -20.629328 -12.304226 -64.569094 0.000000 0.000000 0.000000 -7.253241 -0.146194 27.557936 -4.185750 -4.857880 -26.758659 16.185261 -2.116261 22.684995 8.369142 -1.087718 -1.727797 0.000000 0.000000 0.000000 41.437223 -43.564846 4.688738 -98.127717 -47.133953 28.361924 126.594862 -76.512681 -99.578586 -153.943003 -26.723574 46.822264 169.927655 0.220929 21.920223 54.047066 20.065943 73.999908 0.000000 0.000000 0.000000 -164.922700 -7.312105 -1.594695 72.923922 -8.867404 23.088735 0.000000 0.000000 0.000000 -102.238793 -58.633005 -39.785381 136.814145 -1.719038 -8.557472 0.000000 0.000000 0.000000 -158.335894 -35.206078 17.529731 176.639681 -46.495105 33.992042 0.000000 0.000000 0.000000 46.164367 27.493732 -4.625203 78.911315 -17.968703 -25.080174 0.000000 0.000000 0.000000 -66.763286 7.950027 6.679010 157.371833 55.231503 86.627906 93.856290 79.197157 89.126767 165.439858 -4.304409 -6.274575 16.066763 -30.567620 42.072086 -92.366854 -2.151367 105.561092 0.000000 0.000000 0.000000 -19.068275 -8.940123 -15.896832 135.832133 0.884706 -13.366234 0.000000 0.000000 0.000000 -22.725590 -17.501571 -110.880223 -38.979086 1.502285 25.578566 0.000000 0.000000 0.000000 -20.045483 4.280152 -92.543103 -109.303180 12.720955 53.112332 0.000000 0.000000 0.000000 -29.183124 3.939874 47.608837 20.122133 5.542540 4.663833 0.000000 0.000000 0.000000 
0.246891 0.712883 0.788559 -19.676737 -10.473208 2.925980 -5.238593 -2.274664 -13.773460 44.931270 -19.492839 31.582854 24.328392 -8.003424 -77.146755 0.000000 0.000000 0.000000 21.725017 4.522700 -16.699370 1.577306 2.173324 36.444562 -19.970138 -18.911362 -69.190562 0.000000 0.000000 0.000000 -4.608054 -0.848162 24.670219 -3.942674 -6.063736 -33.364188 9.848074 2.769734 26.521250 11.046862 -1.064308 -3.616492 0.000000 0.000000 0.000000 68.508058 -38.268679 -6.073157 -121.320590 -54.633232 49.347959 83.972136 -64.308488 -49.996432 -167.872569 -15.265177 46.615582 17.175201 -6.512648 49.990605 121.970229 -13.387231 167.211866 0.000000 0.000000 0.000000 0.724680 -10.314325 -4.159276 -137.225048 -19.839420 2.277120 0.000000 0.000000 0.000000 47.358619 8.531062 -43.668475 18.344153 3.156011 20.252303 0.000000 0.000000 0.000000 27.896711 -1.961242 -33.333409 30.278263 11.606122 34.190177 0.000000 0.000000 0.000000 36.581451 9.020641 25.964148 -11.725468 -14.791391 -1.349180 0.000000 0.000000 0.000000 -68.057292 11.359054 4.985741 168.133422 55.694010 113.744370 4.740934 82.422313 6.384531 164.833009 6.577451 20.995276 2.964923 -22.642340 51.774492 -88.532408 -21.520462 145.814149 0.000000 0.000000 0.000000 -11.351753 -40.373971 1.167744 124.214101 52.846421 -9.053547 0.000000 0.000000 0.000000 -26.008298 -11.720123 -87.720534 -42.354812 2.814709 24.049492 0.000000 0.000000 0.000000 -10.305526 15.195608 -73.624422 177.283255 14.625981 13.218391 0.000000 0.000000 0.000000 -35.840225 -4.526530 38.546569 16.643990 5.206195 3.663680 0.000000 0.000000 0.000000 
0.254429 0.698700 0.791199 -14.667417 -7.613782 -2.772373 -11.560990 -1.575434 -6.967942 39.916841 -17.071967 27.970705 23.511844 0.140441 -76.208372 0.000000 0.000000 0.000000 16.117765 3.473702 -15.577010 7.396533 0.041865 43.746249 -16.787800 -31.729045 -70.080365 0.000000 0.000000 0.000000 -3.865341 -1.084835 27.882494 -7.200841 -5.556527 -34.677894 9.762938 5.136508 28.869502 5.101837 0.201926 -5.793715 0.000000 0.000000 0.000000 68.334081 -12.196769 0.517002 -135.376352 -44.650784 41.018959 11.253797 -76.567135 0.122242 -169.309960 -17.715270 49.270052 33.790809 2.465726 67.782031 -105.974618 48.386475 -29.236350 0.000000 0.000000 0.000000 -52.736764 -9.729837 1.733131 101.465755 -69.220403 125.184297 0.000000 0.000000 0.000000 32.027270 6.152396 -42.763833 28.508597 0.167616 20.082141 0.000000 0.000000 0.000000 11.559113 -9.474483 -25.949971 68.269039 22.528937 139.024447 0.000000 0.000000 0.000000 45.730303 15.475124 25.235264 -8.930471 -14.955014 -2.185610 0.000000 0.000000 0.000000 -68.927947 20.133568 2.460385 166.536044 57.212103 121.815880 -64.672295 72.669634 -49.407579 168.768975 8.875638 24.837713 -3.193327 -6.233655 30.231601 -40.764686 -10.445651 27.755385 0.000000 0.000000 0.000000 -5.516295 6.015861 -12.583150 -78.750834 -11.183893 138.033179 0.000000 0.000000 0.000000 -32.968714 -10.255625 -56.851135 -33.006074 1.564255 16.839912 0.000000 0.000000 0.000000 -15.447834 5.477951 -34.034020 -52.748962 -1.203769 14.468428 0.000000 0.000000 0.000000 -37.368837 -5.436340 34.984940 18.725963 9.032533 3.291859 0.000000 0.000000 0.000000 
0.257256 0.694832 0.791199 -14.680032 -3.340361 -5.865876 -15.803055 -2.958741 -11.417652 32.353683 -22.946016 47.023655 21.538831 9.521216 -68.752386 0.000000 0.000000 0.000000 13.981285 4.157885 -18.688962 9.852166 -2.187759 51.564212 -15.133030 -35.119941 -71.321396 0.000000 0.000000 0.000000 -1.311670 -1.891651 30.539764 -8.967770 -4.148330 -30.946014 9.349799 7.142108 23.094456 6.687418 -0.484183 -2.890904 0.000000 0.000000 0.000000 59.783827 -18.117998 4.835922 -125.758441 -47.363728 28.212617 -44.032107 -84.600962 52.731025 -164.112654 -18.658991 40.292898 164.625615 13.619240 20.882260 75.569841 44.732934 119.413275 0.000000 0.000000 0.000000 -163.215549 -3.214736 5.695322 93.535713 -17.528209 143.987498 0.000000 0.000000 0.000000 8.797207 -6.384257 -75.351693 157.599481 -9.172093 -20.037944 0.000000 0.000000 0.000000 -146.974588 -42.721777 14.770692 -151.280863 -75.825355 27.519832 0.000000 0.000000 0.000000 53.877877 13.623800 36.253381 3.550396 -8.103350 -5.501170 0.000000 0.000000 0.000000 -62.777588 20.080808 2.335877 160.512948 51.254736 110.948809 -55.037678 64.511655 -38.034867 168.665436 6.341309 17.252781 -2.568634 -4.442884 21.170448 -50.832104 3.087111 -1.450658 0.000000 0.000000 0.000000 -11.176899 4.779334 -8.746601 -43.658242 5.673248 -1.749419 0.000000 0.000000 0.000000 -41.602081 -7.494700 -46.979411 -25.042103 -0.358122 15.998601 0.000000 0.000000 0.000000 -21.966535 3.467432 -22.420027 -40.370328 -0.059100 0.743067 0.000000 0.000000 0.000000 -34.881284 -3.666815 36.295989 18.262196 9.256639 3.043508 0.000000 0.000000 0.000000 
